<?xml version="1.0" encoding="UTF-8" standalone="no"?>
<!-- Created with Inkscape (http://www.inkscape.org/) -->

<svg
   width="1200"
   height="600"
   viewBox="0 0 317.49999 158.75"
   version="1.1"
   id="svg5"
   xml:space="preserve"
   inkscape:export-filename="splash.png"
   inkscape:export-xdpi="96"
   inkscape:export-ydpi="96"
   inkscape:version="1.2.2 (732a01da63, 2022-12-09)"
   sodipodi:docname="splash.svg"
   xmlns:inkscape="http://www.inkscape.org/namespaces/inkscape"
   xmlns:sodipodi="http://sodipodi.sourceforge.net/DTD/sodipodi-0.dtd"
   xmlns="http://www.w3.org/2000/svg"
   xmlns:svg="http://www.w3.org/2000/svg"><sodipodi:namedview
     id="namedview7"
     pagecolor="#ffffff"
     bordercolor="#000000"
     borderopacity="0.25"
     inkscape:showpageshadow="2"
     inkscape:pageopacity="1"
     inkscape:pagecheckerboard="0"
     inkscape:deskcolor="#d1d1d1"
     inkscape:document-units="mm"
     showgrid="false"
     inkscape:zoom="0.49501589"
     inkscape:cx="605.03109"
     inkscape:cy="243.42653"
     inkscape:window-width="1920"
     inkscape:window-height="991"
     inkscape:window-x="-32000"
     inkscape:window-y="-32000"
     inkscape:window-maximized="0"
     inkscape:current-layer="layer1" /><defs
     id="defs2" /><g
     inkscape:label="Layer 1"
     inkscape:groupmode="layer"
     id="layer1"><text
       xml:space="preserve"
       style="font-size:21.1667px;font-family:Calibri;-inkscape-font-specification:Calibri;text-align:center;text-anchor:middle;fill:#000000;fill-opacity:1;stroke:#ffffff;stroke-width:2;stroke-opacity:1;paint-order:markers stroke fill"
       x="27.705225"
       y="131.13806"
       id="text236"><tspan
         sodipodi:role="line"
         id="tspan234"
         style="fill:#000000;fill-opacity:1;stroke:#ffffff;stroke-width:2;stroke-opacity:1;paint-order:markers stroke fill"
         x="27.705225"
         y="131.13806" /></text><g
       id="g8565"
       transform="translate(111.84241,9.2742004)"><rect
         style="opacity:1;fill:#ffffff;fill-opacity:1;stroke:none;stroke-width:7.02792;stroke-dasharray:none;stroke-opacity:1;paint-order:markers stroke fill"
         id="rect8549"
         width="317.5"
         height="158.75"
         x="-111.84241"
         y="-9.2742004" /><g
         id="g8556"
         transform="matrix(2.0651735,0,0,2.0651735,-181.43487,-178.2018)"><path
           d="m 84.192483,114.96226 q 0,-0.50643 -0.413412,-0.88883 -0.258382,-0.21704 -0.909506,-0.21704 H 81.53631 q -0.909506,0 -1.415936,0.51676 -0.248047,0.55811 -0.310059,1.10588 h -1.105878 l 0.248048,-2.70785 H 91.57189 l 0.258382,2.70785 h -1.105877 q -0.06201,-0.54777 -0.320395,-1.10588 -0.496094,-0.51676 -1.415936,-0.51676 h -1.322919 q -0.651124,0 -0.909507,0.21704 -0.413412,0.3824 -0.413412,0.88883 v 10.00458 q 0,1.12654 0.413412,1.49861 0.248048,0.22738 0.899172,0.22738 v 0.89917 h -4.785245 v -0.89917 q 0.671794,0 0.919841,-0.22738 0.392742,-0.37207 0.403077,-1.55029 z"
           style="font-size:21.1667px;font-family:Magnolia;-inkscape-font-specification:Magnolia;text-align:center;text-anchor:middle;paint-order:markers stroke fill"
           id="path7753" /><path
           d="m 102.45496,125.77299 q 0,0.51676 0.6718,0.79582 0.22737,0.093 0.45475,0.093 0.11369,0 0.21704,-0.0207 v 0.9095 q -0.53743,0.15503 -1.11621,0.15503 -0.12402,0 -0.25838,-0.0103 -1.43661,-0.093 -1.77767,-1.25058 l -0.0103,0.0103 -0.0207,0.0207 -0.0207,0.0207 q -0.0207,0.0413 -0.0517,0.0724 -0.0413,0.0413 -0.0827,0.093 -0.10335,0.11368 -0.23771,0.21704 -0.15503,0.13436 -0.341067,0.25838 -0.465089,0.31006 -1.03353,0.48576 -0.713136,0.21704 -1.550296,0.21704 -2.025719,0 -2.955896,-0.97152 -0.950848,-0.97152 -0.950848,-3.07992 l 0.02067,-5.20899 q 0,-0.43408 -0.372071,-0.62012 -0.217041,-0.10335 -0.475424,-0.10335 -0.217041,0 -0.475423,0.0723 v -0.9095 q 0.826824,-0.23771 1.446942,-0.23771 0.547771,0 0.940513,0.1757 0.837159,0.36173 0.837159,1.42627 l -0.01034,4.96094 q 0,3.36931 2.604496,3.36931 1.064536,0 1.881025,-0.93018 0.74414,-0.85783 0.74414,-1.76733 l 0.0103,-5.43637 q 0,-0.43408 -0.3824,-0.62012 -0.206705,-0.10335 -0.465088,-0.10335 -0.217041,0 -0.475423,0.0723 v -0.9095 q 0.826821,-0.23771 1.446941,-0.23771 0.53743,0 0.93017,0.1757 0.8475,0.36173 0.8475,1.42627 0.0103,6.88331 0.0103,7.38974 z"
           style="font-size:21.1667px;font-family:Magnolia;-inkscape-font-specification:Magnolia;text-align:center;text-anchor:middle;paint-order:markers stroke fill"
           id="path7755" /><path
           d="m 113.60676,125.2769 q 0.65112,-1.20924 0.65112,-2.97657 0,-1.78801 -0.65112,-2.99724 -0.74415,-1.35392 -2.04639,-1.35392 -1.07487,0 -1.86036,0.64078 -0.79582,0.64079 -1.14722,1.81902 l -0.0103,1.71566 v 2.00505 q 0.3514,1.20923 1.16789,1.86035 0.78548,0.65113 1.85002,0.65113 1.30224,0 2.04639,-1.36426 z m 1.788,-6.74896 q 1.06454,1.47795 1.06454,3.79306 0,2.30477 -1.06454,3.78272 -1.2609,1.71566 -3.62769,1.71566 -1.0542,0 -1.91203,-0.40308 -0.88883,-0.43408 -1.33325,-1.19889 -0.0103,0.83716 -0.97152,1.17822 -0.47542,0.1757 -0.96118,0.1757 v -6.49057 l -0.0207,-6.6766 q 0,-0.44442 -0.37208,-0.63046 -0.22737,-0.10335 -0.49609,-0.10335 -0.21704,0 -0.48576,0.0724 v -0.94052 q 0.85783,-0.24804 1.48828,-0.24804 0.56845,0 0.97152,0.18603 0.89917,0.38241 0.89917,1.83969 l -0.0103,2.73885 v 1.20923 q 0.88883,-1.71566 3.20394,-1.71566 2.37712,0 3.62769,1.71566 z"
           style="font-size:21.1667px;font-family:Magnolia;-inkscape-font-specification:Magnolia;text-align:center;text-anchor:middle;paint-order:markers stroke fill"
           id="path7757" /><path
           d="m 122.93953,117.88715 q -1.2609,0 -1.95337,1.03353 -0.64079,0.96119 -0.64079,2.50115 h 5.209 q 0,-1.5503 -0.65113,-2.51148 -0.69246,-1.0232 -1.96371,-1.0232 z m 4.3305,7.8755 q -0.41342,0.85783 -1.20923,1.39527 -1.11622,0.73381 -2.84221,0.73381 -2.40813,0 -3.72071,-1.31259 -1.4056,-1.41593 -1.4056,-4.2168 0,-2.9559 1.41593,-4.38217 1.2299,-1.2299 3.40032,-1.2299 2.18075,0 3.40031,1.26091 1.41594,1.46761 1.41594,4.5682 -3.71037,-0.0103 -5.56039,-0.0103 -1.86036,0 -1.86036,0.0103 0,2.36679 0.94051,3.37965 0.75448,0.81648 2.21176,0.81648 1.11621,0 1.91203,-0.56844 0.31006,-0.21704 0.54777,-0.50643 0.18604,-0.22737 0.33073,-0.47542 z"
           style="font-size:21.1667px;font-family:Magnolia;-inkscape-font-specification:Magnolia;text-align:center;text-anchor:middle;paint-order:markers stroke fill"
           id="path7759" /><path
           d="m 135.48659,119.78885 q 1.45728,0 2.26343,-0.83716 0.72347,-0.75448 0.72347,-1.94304 0,-1.71566 -0.84749,-2.54248 -0.74414,-0.72347 -2.05673,-0.72347 h -1.13688 q -0.65112,0 -0.90951,0.22737 -0.41341,0.38241 -0.41341,1.53996 v 4.27882 z m 4.70256,3.71037 q 0.4961,1.91203 0.88884,2.54249 0.43408,0.69246 1.14722,0.69246 0.10335,0 0.2067,-0.0103 v 0.93017 q -0.26871,0.20671 -1.04386,0.24805 -0.10335,0.0103 -0.20671,0.0103 -1.01286,0 -1.67432,-0.65113 -0.94051,-0.91984 -1.5813,-3.42098 -0.45475,-1.74667 -1.4366,-2.55282 -0.37208,-0.29973 -0.78549,-0.45476 -0.31006,-0.10335 -0.62012,-0.13435 h -1.97404 v 4.27881 q 0,1.13688 0.41341,1.51929 0.25839,0.22738 0.95085,0.22738 v 0.93017 h -4.73357 v -0.93017 q 0.6718,0 0.91984,-0.22738 0.39275,-0.37207 0.39275,-1.51929 v -9.46714 q 0,-1.16789 -0.39275,-1.53996 -0.24804,-0.22737 -0.91984,-0.22737 v -0.89917 h 5.90146 q 0.82683,0 1.53996,0.10335 0.98185,0.15503 1.70533,0.50643 1.95337,0.95085 1.95337,3.21428 0,2.92489 -2.84221,3.74138 1.61231,0.8785 2.19108,3.09025 z"
           style="font-size:21.1667px;font-family:Magnolia;-inkscape-font-specification:Magnolia;text-align:center;text-anchor:middle;paint-order:markers stroke fill"
           id="path7761" /></g></g></g></svg>
